{"title":"Trumbo.2015.BRRip.480p.x264.AAC-VYTO [P2PDL]","uid":13422716,"size":467745948,"categoryP":"video","categoryS":"movies","magnet":"?xt=urn:btih:55a9a6edfcb023d4514797b9fd1c02296a40ea6f&amp;dn=Trumbo.2015.BRRip.480p.x264.AAC-VYTO+%5BP2PDL%5D&amp;tr=udp%3A%2F%2Ftracker.leechers-paradise.org%3A6969&amp;tr=udp%3A%2F%2Fzer0day.ch%3A1337&amp;tr=udp%3A%2F%2Fopen.demonii.com%3A1337&amp;tr=udp%3A%2F%2Ftracker.coppersurfer.tk%3A6969&amp;tr=udp%3A%2F%2Fexodus.desync.com%3A6969","seeders":1,"leechers":2,"uploader":"VYTOP2PDL","files":7,"time":1454563460,"description":"____    ____ ____    ____ .___________.  ______   \r\n     /   /      /   / |           | /  __    \r\n    /   /      /   /  `---|  |----`|  |  |  | \r\n        /     _    _/       |  |     |  |  |  | \r\n       /        |  |         |  |     |  `--'  | \r\n    __/         |__|         |__|      ______/  \r\n                                                  \r\nPresenting Small Encodes with quality for years!\r\n                                                                                                   \r\n                                                                                                   \r\n\r\n\r\nTrumbo.2015.BRRip.480p.x264.AAC-VYTO\r\n\r\n\r\nGenre: Biography, Drama  \nhttp://www.imdb.com/title/tt3203606/\r\n\r\n\r\n\r\nFormat                                   : MPEG-4\r\nFile size                                : 437 MiB\r\nDuration                                 : 2h 4mn\r\nOverall bit rate                         : 490 Kbps\r\n\r\nVideo\r\nFormat                                   : AVC\r\nBit rate                                 : 455 Kbps\r\nWidth                                    : 720 pixels\r\nHeight                                   : 384 pixels\r\nDisplay aspect ratio                     : 1.85:1\r\nFrame rate mode                          : Constant\r\nFrame rate                               : 23.976 fps\r\nBit depth                                : 8 bits\r\nStream size                              : 406 MiB (93%)\r\nWriting library                          : x264 \r\n\r\nAudio\r\nFormat                                   : AAC\r\nBit rate mode                            : Variable\r\nBit rate                                 : 32.0 Kbps\r\nChannel(s)                               : 2 channels \r\nChannel positions                        : Front: L R \r\nSampling rate                            : 48.0 KHz \r\nStream size                              : 28.5 MiB (7%)\r\nLanguage                                 : English\r\n\r\nSubtitle                                 : Yes (English)\r\n\r\nScreen Shot: (Click to view)\r\n \nhttp://ititli.com/XXG \nhttp://ititli.com/XXH \nhttp://ititli.com/XXM \nhttp://ititli.com/XXU \nhttp://ititli.com/XXh \nhttp://ititli.com/XXs \nhttp://ititli.com/XXY \nhttp://ititli.com/XX4 \nhttp://ititli.com/XXK \nhttp://ititli.com/XXV \nhttp://ititli.com/XXt \nhttp://ititli.com/XXL \nhttp://ititli.com/XXd \nhttp://ititli.com/XX0 \nhttp://ititli.com/XXA\r\n\r\n----------------------------------------------------------------------------------------------------\r\n\r\n\r\nEncoder Notes: Looking For Early Access To Anything You Can Provide WEBDL, DVDScr, DVDR, BluRay,\r\nDirect Audio, Music Releases and Seedboxes. If You Got anything to offer please contact us.\r\n\r\nSend some love!\r\nFind us and join us!","torrent":{"xt":"urn:btih:55a9a6edfcb023d4514797b9fd1c02296a40ea6f","amp;dn":"Trumbo.2015.BRRip.480p.x264.AAC-VYTO+%5BP2PDL%5D","amp;tr":["udp%3A%2F%2Ftracker.leechers-paradise.org%3A6969","udp%3A%2F%2Fzer0day.ch%3A1337","udp%3A%2F%2Fopen.demonii.com%3A1337","udp%3A%2F%2Ftracker.coppersurfer.tk%3A6969","udp%3A%2F%2Fexodus.desync.com%3A6969"],"infoHash":"55a9a6edfcb023d4514797b9fd1c02296a40ea6f","infoHashBuffer":{"type":"Buffer","data":[85,169,166,237,252,176,35,212,81,71,151,185,253,28,2,41,106,64,234,111]},"announce":[],"urlList":[]}}